<svg width="27" height="27" viewBox="0 0 27 27" fill="none" xmlns="http://www.w3.org/2000/svg">
<path d="M26.6334 14.3039C26.7372 6.29543 20.3403 -0.102613 12.3308 0.00124678C11.8996 0.00683796 11.5455 0.360913 11.5399 0.792095L11.3621 14.5019C11.3566 14.9331 11.7016 15.2781 12.1327 15.2725L25.8425 15.0947C26.2737 15.0891 26.6278 14.735 26.6334 14.3039Z" fill="white"/>
<path d="M9.17701 8.97658C9.42891 8.83637 9.58779 8.57181 9.59149 8.28664L9.65136 3.66938C9.65459 3.42087 9.53932 3.18867 9.34082 3.04421C9.14232 2.8997 8.88454 2.8602 8.64645 2.93769C3.94382 4.46892 0.406711 8.75549 0.019679 13.8684L5.87173 13.7925C6.14638 11.7855 7.36431 9.98584 9.17701 8.97658Z" fill="white"/>
<path d="M23.6969 17.9882C23.7743 17.7501 23.7348 17.4922 23.5904 17.2938C23.4459 17.0953 23.2137 16.98 22.9651 16.9833L18.3479 17.0431C18.0628 17.0468 17.7983 17.2058 17.658 17.4576C16.6487 19.2702 14.8491 20.4882 12.8421 20.7628L12.7663 26.6149C17.8902 26.227 22.1692 22.6797 23.6969 17.9882Z" fill="white"/>
<path d="M11.2807 20.7841C8.41764 20.4671 6.16758 18.217 5.8506 15.3539L0 15.4298C0.304452 21.5168 5.10959 26.3298 11.2049 26.6346L11.2807 20.7841Z" fill="white"/>
</svg>
